<svg width="16" height="14" viewBox="0 0 16 14" fill="none" xmlns="http://www.w3.org/2000/svg">
<path d="M6.21771 8.69032C5.76 8.2334 5.48139 7.6125 5.48139 6.91599C5.48139 5.52056 6.60537 4.39579 8 4.39579C8.69015 4.39579 9.32537 4.67519 9.77513 5.13211M10.4718 7.36263C10.2871 8.3895 9.47837 9.19985 8.4523 9.38612M3.74527 11.1624C2.48199 10.1705 1.41214 8.72176 0.636814 6.91559C1.4201 5.10146 2.49711 3.64475 3.76836 2.64495C5.03164 1.64514 6.48915 1.10226 8 1.10226C9.5196 1.10226 10.9763 1.65311 12.2476 2.66007M13.9288 4.41091C14.4764 5.13847 14.958 5.97827 15.3632 6.91519C13.7974 10.5427 11.0304 12.7277 8 12.7277C7.31303 12.7277 6.63562 12.6163 5.98447 12.399M14.2785 0.636823L1.72211 13.1932" stroke="#ADA4A5" stroke-width="1.2" stroke-linecap="round" stroke-linejoin="round"/>
</svg>
