<svg width="12" height="15" viewBox="0 0 12 15" fill="none" xmlns="http://www.w3.org/2000/svg">
<path fill-rule="evenodd" clip-rule="evenodd" d="M7.55918e-05 9.43345H11.9575V15H7.55918e-05V9.43345Z" fill="#F7F8F8"/>
<path fill-rule="evenodd" clip-rule="evenodd" d="M5.97951 10.5658C2.76291 10.5658 1.13234 11.1183 1.13234 12.2092C1.13234 13.3098 2.76291 13.8677 5.97951 13.8677C9.19535 13.8677 10.8252 13.3151 10.8252 12.2243C10.8252 11.1236 9.19535 10.5658 5.97951 10.5658ZM5.97951 15C4.50067 15 0 15 0 12.2092C0 9.72103 3.41287 9.43342 5.97951 9.43342C7.45834 9.43342 11.9575 9.43342 11.9575 12.2243C11.9575 14.7124 8.54539 15 5.97951 15Z" fill="#7B6F72"/>
<path fill-rule="evenodd" clip-rule="evenodd" d="M1.97025 0.000302727H9.98724V8.01621H1.97025V0.000302727Z" fill="#F7F8F8"/>
<path fill-rule="evenodd" clip-rule="evenodd" d="M5.97952 1.07799C4.36329 1.07799 3.04827 2.39226 3.04827 4.00848C3.04298 5.61943 4.34819 6.93294 5.95763 6.93898L5.97952 7.47797V6.93898C7.59499 6.93898 8.90926 5.62396 8.90926 4.00848C8.90926 2.39226 7.59499 1.07799 5.97952 1.07799ZM5.97951 8.01621H5.95535C3.74956 8.00942 1.96272 6.21051 1.97027 4.00622C1.97027 1.79816 3.76843 0 5.97951 0C8.18984 0 9.98724 1.79816 9.98724 4.00848C9.98724 6.21881 8.18984 8.01621 5.97951 8.01621Z" fill="#7B6F72"/>
</svg>
