<svg width="12" height="15" viewBox="0 0 12 15" fill="none" xmlns="http://www.w3.org/2000/svg">
<path fill-rule="evenodd" clip-rule="evenodd" d="M6.98323e-05 9.43343H11.9575V15H6.98323e-05V9.43343Z" fill="#F7F8F8"/>
<path fill-rule="evenodd" clip-rule="evenodd" d="M5.9795 10.5658C2.7629 10.5658 1.13234 11.1183 1.13234 12.2092C1.13234 13.3098 2.7629 13.8677 5.9795 13.8677C9.19533 13.8677 10.8251 13.3151 10.8251 12.2243C10.8251 11.1236 9.19533 10.5658 5.9795 10.5658ZM5.9795 15C4.50066 15 0 15 0 12.2092C0 9.72104 3.41286 9.43343 5.9795 9.43343C7.45833 9.43343 11.9575 9.43343 11.9575 12.2243C11.9575 14.7124 8.54537 15 5.9795 15Z" fill="#7B6F72"/>
<path fill-rule="evenodd" clip-rule="evenodd" d="M1.97024 0.000302727H9.98721V8.0162H1.97024V0.000302727Z" fill="#F7F8F8"/>
<path fill-rule="evenodd" clip-rule="evenodd" d="M5.9795 1.07799C4.36328 1.07799 3.04826 2.39225 3.04826 4.00848C3.04297 5.61941 4.34818 6.93293 5.95761 6.93897L5.9795 7.47796V6.93897C7.59497 6.93897 8.90924 5.62394 8.90924 4.00848C8.90924 2.39225 7.59497 1.07799 5.9795 1.07799ZM5.97949 8.0162H5.95534C3.74954 8.0094 1.96271 6.21049 1.97026 4.00621C1.97026 1.79815 3.76841 0 5.97949 0C8.18981 0 9.98721 1.79815 9.98721 4.00847C9.98721 6.2188 8.18981 8.0162 5.97949 8.0162Z" fill="#7B6F72"/>
</svg>
