<svg width="35" height="34" viewBox="0 0 35 34" fill="none" xmlns="http://www.w3.org/2000/svg">
<path d="M0 16.3448C0 8.63977 0 4.78727 2.39363 2.39363C4.78727 0 8.63977 0 16.3448 0H18.4137C26.1187 0 29.9712 0 32.3648 2.39363C34.7585 4.78727 34.7585 8.63977 34.7585 16.3448V17.6552C34.7585 25.3602 34.7585 29.2127 32.3648 31.6064C29.9712 34 26.1187 34 18.4137 34H16.3448C8.63977 34 4.78727 34 2.39363 31.6064C0 29.2127 0 25.3602 0 17.6553V16.3448Z" fill="#F7F8F8"/>
<path d="M16.2931 17C16.2931 18.1736 15.3204 19.125 14.1206 19.125C12.9209 19.125 11.9482 18.1736 11.9482 17C11.9482 15.8264 12.9209 14.875 14.1206 14.875C15.3204 14.875 16.2931 15.8264 16.2931 17Z" fill="#1D1617"/>
<path d="M22.8103 17C22.8103 18.1736 21.8376 19.125 20.6378 19.125C19.4381 19.125 18.4654 18.1736 18.4654 17C18.4654 15.8264 19.4381 14.875 20.6378 14.875C21.8376 14.875 22.8103 15.8264 22.8103 17Z" fill="#1D1617"/>
</svg>
