<svg width="315" height="48" viewBox="0 0 315 48" fill="none" xmlns="http://www.w3.org/2000/svg">
<path d="M0.5 24C0.5 19.3123 0.500549 15.8324 0.765898 13.0964C1.0305 10.368 1.55472 8.43215 2.56922 6.81757C3.64824 5.10031 5.10031 3.64824 6.81757 2.56922C8.43215 1.55472 10.368 1.0305 13.0964 0.765898C15.8324 0.500549 19.3123 0.5 24 0.5H291C295.688 0.5 299.168 0.500549 301.904 0.765898C304.632 1.0305 306.568 1.55472 308.182 2.56922C309.9 3.64825 311.352 5.10031 312.431 6.81756C313.445 8.43215 313.969 10.368 314.234 13.0964C314.499 15.8324 314.5 19.3123 314.5 24C314.5 28.6877 314.499 32.1676 314.234 34.9036C313.969 37.632 313.445 39.5679 312.431 41.1824C311.352 42.8997 309.9 44.3518 308.182 45.4308C306.568 46.4453 304.632 46.9695 301.904 47.2341C299.168 47.4995 295.688 47.5 291 47.5H24C19.3123 47.5 15.8324 47.4995 13.0964 47.2341C10.368 46.9695 8.43215 46.4453 6.81757 45.4308C5.10031 44.3518 3.64824 42.8997 2.56922 41.1824C1.55472 39.5679 1.0305 37.632 0.765898 34.9036C0.500549 32.1676 0.5 28.6877 0.5 24Z" fill="#F7F8F8" stroke="#F7F8F8"/>
</svg>
