<svg width="16" height="14" viewBox="0 0 16 14" fill="none" xmlns="http://www.w3.org/2000/svg">
<path d="M6.21771 8.69034C5.75999 8.23343 5.48139 7.61253 5.48139 6.91601C5.48139 5.52058 6.60537 4.3958 8 4.3958C8.69015 4.3958 9.32538 4.67521 9.77513 5.13212M10.4718 7.36265C10.2871 8.38952 9.47838 9.19988 8.4523 9.38614M3.74526 11.1624C2.48197 10.1706 1.41212 8.72179 0.636792 6.91562C1.42008 5.10148 2.4971 3.64476 3.76834 2.64495C5.03163 1.64515 6.48915 1.10226 8 1.10226C9.51961 1.10226 10.9763 1.65311 12.2476 2.66008M13.9288 4.41092C14.4764 5.13849 14.958 5.97829 15.3632 6.91521C13.7974 10.5427 11.0305 12.7278 8 12.7278C7.31303 12.7278 6.63561 12.6163 5.98447 12.399M14.2785 0.636824L1.72209 13.1933" stroke="#ADA4A5" stroke-width="1.2" stroke-linecap="round" stroke-linejoin="round"/>
</svg>
