<svg width="18" height="31" viewBox="0 0 18 31" fill="none" xmlns="http://www.w3.org/2000/svg">
<path d="M11.1263 28.8621C11.1263 30.0428 10.13 31 8.90101 31C7.67203 31 6.67575 30.0428 6.67575 28.8621C6.67575 27.6814 7.67203 26.7242 8.90101 26.7242C10.13 26.7242 11.1263 27.6814 11.1263 28.8621Z" fill="url(#paint0_linear_120_320)"/>
<path d="M14.7912 5.65596C14.7912 8.79554 12.1711 11.313 8.90101 11.313C5.632 11.313 3.01078 8.79554 3.01078 5.65596C3.01078 2.51637 5.632 0 8.90101 0C12.1711 0 14.7912 2.51637 14.7912 5.65596Z" fill="url(#paint1_linear_120_320)"/>
<path d="M8.90101 21.3793C4.07485 21.3793 0 20.6257 0 17.7181C0 14.8094 4.10045 14.0825 8.90101 14.0825C13.7283 14.0825 17.802 14.8361 17.802 17.7437C17.802 20.6524 13.7016 21.3793 8.90101 21.3793Z" fill="url(#paint2_linear_120_320)"/>
<defs>
<linearGradient id="paint0_linear_120_320" x1="17.802" y1="31" x2="-6.01942" y2="29.9415" gradientUnits="userSpaceOnUse">
<stop stop-color="#C58BF2"/>
<stop offset="1" stop-color="#EEA4CE"/>
</linearGradient>
<linearGradient id="paint1_linear_120_320" x1="17.802" y1="31" x2="-6.01942" y2="29.9415" gradientUnits="userSpaceOnUse">
<stop stop-color="#C58BF2"/>
<stop offset="1" stop-color="#EEA4CE"/>
</linearGradient>
<linearGradient id="paint2_linear_120_320" x1="17.802" y1="31" x2="-6.01942" y2="29.9415" gradientUnits="userSpaceOnUse">
<stop stop-color="#C58BF2"/>
<stop offset="1" stop-color="#EEA4CE"/>
</linearGradient>
</defs>
</svg>
