<svg width="344" height="164" viewBox="0 0 344 164" fill="none" xmlns="http://www.w3.org/2000/svg">
<g opacity="0.2">
<path d="M19 44C19 23.2582 19 12.8873 25.4437 6.44365C31.8873 0 42.2582 0 63 0H290C310.742 0 321.113 0 327.556 6.44365C334 12.8873 334 23.2582 334 44V102C334 122.742 334 133.113 327.556 139.556C321.113 146 310.742 146 290 146H63C42.2582 146 31.8873 146 25.4437 139.556C19 133.113 19 122.742 19 102V44Z" fill="url(#paint0_linear_120_289)"/>
<path d="M344 123C344 136.807 332.807 148 319 148C305.193 148 294 136.807 294 123C294 109.193 305.193 98 319 98C332.807 98 344 109.193 344 123Z" fill="white"/>
<path d="M50 139C50 152.807 38.8071 164 25 164C11.1929 164 0 152.807 0 139C0 125.193 11.1929 114 25 114C38.8071 114 50 125.193 50 139Z" fill="white"/>
<path d="M194 26C194 28.2091 192.209 30 190 30C187.791 30 186 28.2091 186 26C186 23.7909 187.791 22 190 22C192.209 22 194 23.7909 194 26Z" fill="white"/>
<path d="M159 110C159 112.209 157.209 114 155 114C152.791 114 151 112.209 151 110C151 107.791 152.791 106 155 106C157.209 106 159 107.791 159 110Z" fill="white"/>
<path d="M136 16C136 18.2091 134.209 20 132 20C129.791 20 128 18.2091 128 16C128 13.7909 129.791 12 132 12C134.209 12 136 13.7909 136 16Z" fill="white"/>
<path d="M202 131C202 133.209 200.209 135 198 135C195.791 135 194 133.209 194 131C194 128.791 195.791 127 198 127C200.209 127 202 128.791 202 131Z" fill="white"/>
</g>
<defs>
<linearGradient id="paint0_linear_120_289" x1="344" y1="164" x2="-105.387" y2="91.0594" gradientUnits="userSpaceOnUse">
<stop stop-color="#92A3FD"/>
<stop offset="1" stop-color="#9DCEFF"/>
</linearGradient>
</defs>
</svg>
