<svg width="22" height="31" viewBox="0 0 22 31" fill="none" xmlns="http://www.w3.org/2000/svg">
<path d="M12.7541 28.8621C12.7541 30.0428 11.761 31 10.536 31C9.31097 31 8.31789 30.0428 8.31789 28.8621C8.31789 27.6813 9.31097 26.7241 10.536 26.7241C11.761 26.7241 12.7541 27.6813 12.7541 28.8621Z" fill="url(#paint0_linear_120_300)"/>
<path fill-rule="evenodd" clip-rule="evenodd" d="M7.38319 20.066V16.7877C7.38318 15.9539 8.08844 15.2764 8.96226 15.2708H12.1631C13.0411 15.2708 13.7528 15.95 13.7528 16.7877V20.0762C13.7526 20.7841 14.3448 21.3627 15.0865 21.3793H17.2203C19.3475 21.3793 21.072 19.7338 21.072 17.704V8.37838C21.0606 7.57985 20.6677 6.82999 20.005 6.34221L12.7072 0.732563C11.4287 -0.244188 9.61127 -0.244188 8.33277 0.732563L1.06694 6.35239C0.401763 6.8382 0.00819222 7.5893 0 8.38856V17.704C0 19.7338 1.72444 21.3793 3.85164 21.3793H5.98551C6.74564 21.3793 7.36186 20.7913 7.36186 20.066" fill="url(#paint1_linear_120_300)"/>
<defs>
<linearGradient id="paint0_linear_120_300" x1="21.072" y1="31" x2="-7.10283" y2="29.518" gradientUnits="userSpaceOnUse">
<stop stop-color="#C58BF2"/>
<stop offset="1" stop-color="#EEA4CE"/>
</linearGradient>
<linearGradient id="paint1_linear_120_300" x1="21.072" y1="31" x2="-7.10283" y2="29.518" gradientUnits="userSpaceOnUse">
<stop stop-color="#C58BF2"/>
<stop offset="1" stop-color="#EEA4CE"/>
</linearGradient>
</defs>
</svg>
