<svg width="23" height="23" viewBox="0 0 23 23" fill="none" xmlns="http://www.w3.org/2000/svg">
<path d="M8.15845 21.0446V17.7076C8.15843 16.8588 8.87867 16.1691 9.77104 16.1634H13.0398C13.9364 16.1634 14.6633 16.8547 14.6633 17.7076V17.7076V21.055C14.6631 21.7756 15.2678 22.3646 16.0252 22.3815H18.2044C20.3768 22.3815 22.1378 20.7065 22.1378 18.6403V18.6403V9.14725C22.1262 8.33439 21.725 7.57108 21.0482 7.07454L13.5955 1.36421C12.2898 0.369932 10.4338 0.369932 9.12818 1.36421L1.70812 7.0849C1.02883 7.57943 0.6269 8.34401 0.618534 9.15762V18.6403C0.618534 20.7065 2.37958 22.3815 4.55193 22.3815H6.7311C7.50737 22.3815 8.13666 21.783 8.13666 21.0446V21.0446" stroke="#ADA4A5" stroke-width="1.2" stroke-linecap="round" stroke-linejoin="round"/>
</svg>
