<svg width="111" height="36" viewBox="0 0 111 36" fill="none" xmlns="http://www.w3.org/2000/svg">
<path d="M5.17443 1.24755H6.18369V1.78021C6.18369 4.05104 3.77269 5.71911 1.22152 6.15365L0.772961 5.2285C3.00173 4.9061 5.17443 3.44829 5.17443 1.78021V1.24755ZM5.4688 1.24755H6.46404V1.78021C6.46404 3.44829 8.65076 4.9061 10.8655 5.2285L10.431 6.15365C7.86578 5.71911 5.4688 4.05104 5.4688 1.78021V1.24755ZM5.21649 7.83574H6.36592V12.6718H5.21649V7.83574ZM0.100125 7.21898H11.5524V8.17216H0.100125V7.21898ZM1.16545 0.784976H10.445V1.72414H1.16545V0.784976Z" fill="#1D1617"/>
<path d="M16.0789 3.01375H16.99V4.09309C16.99 6.77042 15.5322 9.23749 13.5277 10.2327L12.8689 9.33561C14.7332 8.43849 16.0789 6.27981 16.0789 4.09309V3.01375ZM16.3032 3.01375H17.2143V4.09309C17.2143 6.13963 18.4899 8.2002 20.2981 9.09731L19.6533 9.99443C17.6769 9.01321 16.3032 6.61623 16.3032 4.09309V3.01375ZM13.2193 2.20074H20.0178V3.1399H13.2193V2.20074ZM16.0649 0.224279H17.2143V2.71938H16.0649V0.224279ZM21.5597 0H22.7372V12.6718H21.5597V0ZM22.4568 5.20047H24.8118V6.16767H22.4568V5.20047Z" fill="#1D1617"/>
<path d="M4.34941 25.5634H5.21448V26.02C5.21448 27.9664 3.14791 29.3962 0.961195 29.7687L0.576717 28.9757C2.48709 28.6993 4.34941 27.4498 4.34941 26.02V25.5634ZM4.60172 25.5634H5.45478V26.02C5.45478 27.4498 7.32911 28.6993 9.22748 28.9757L8.85501 29.7687C6.65628 29.3962 4.60172 27.9664 4.60172 26.02V25.5634ZM4.38545 31.2105H5.37068V35.3556H4.38545V31.2105ZM0 30.6818H9.81621V31.4988H0V30.6818ZM0.913136 25.1669H8.86703V25.9719H0.913136V25.1669Z" fill="#7B6F72"/>
<path d="M13.6961 27.0773H14.4771V28.0025C14.4771 30.2973 13.2275 32.4119 11.5094 33.265L10.9447 32.4961C12.5427 31.7271 13.6961 29.8768 13.6961 28.0025V27.0773ZM13.8883 27.0773H14.6693V28.0025C14.6693 29.7566 15.7627 31.5228 17.3126 32.2918L16.7599 33.0608C15.0658 32.2197 13.8883 30.1652 13.8883 28.0025V27.0773ZM11.245 26.3804H17.0723V27.1855H11.245V26.3804ZM13.6841 24.6863H14.6693V26.825H13.6841V24.6863ZM18.3939 24.4941H19.4032V35.3556H18.3939V24.4941ZM19.1629 28.9516H21.1814V29.7807H19.1629V28.9516Z" fill="#7B6F72"/>
<path d="M29.4467 24.4821H30.456V35.3556H29.4467V24.4821ZM30.1797 28.8916H32.1861V29.7206H30.1797V28.8916ZM26.6713 25.6596H27.6445C27.6445 28.7474 26.2267 31.5349 22.7184 33.3011L22.1657 32.5321C25.1694 31.0062 26.6713 28.6873 26.6713 25.8157V25.6596ZM22.6703 25.6596H27.1879V26.4766H22.6703V25.6596Z" fill="#7B6F72"/>
<path d="M39.2452 25.3231C40.8432 25.3231 41.9726 26.801 41.9726 29.1078C41.9726 31.4267 40.8432 32.9046 39.2452 32.9046C37.6472 32.9046 36.5178 31.4267 36.5178 29.1078C36.5178 26.801 37.6472 25.3231 39.2452 25.3231ZM39.2452 26.2243C38.1879 26.2243 37.467 27.3537 37.467 29.1078C37.467 30.874 38.1879 32.0275 39.2452 32.0275C40.2905 32.0275 41.0234 30.874 41.0234 29.1078C41.0234 27.3537 40.2905 26.2243 39.2452 26.2243ZM43.7028 24.4941H44.712V35.3556H43.7028V24.4941ZM44.4717 28.8315H46.4902V29.6725H44.4717V28.8315Z" fill="#7B6F72"/>
<path d="M50.298 25.6115H51.127V26.4766C51.127 28.4711 49.9015 30.1411 48.0753 30.7899L47.5586 30.009C49.1926 29.4322 50.298 28.0145 50.298 26.4766V25.6115ZM50.4903 25.6115H51.3193V26.4766C51.3193 27.9424 52.4487 29.264 54.0587 29.8047L53.542 30.5857C51.7398 29.9729 50.4903 28.3749 50.4903 26.4766V25.6115ZM55.3082 24.4941H56.3175V31.0663H55.3082V24.4941ZM49.0605 31.643H56.3175V35.3556H55.3082V32.46H49.0605V31.643ZM47.8229 25.251H53.7703V26.056H47.8229V25.251Z" fill="#7B6F72"/>
<path d="M64.566 25.3231C66.14 25.3231 67.2694 26.801 67.2694 29.1078C67.2694 31.4267 66.14 32.9046 64.566 32.9046C62.9801 32.9046 61.8627 31.4267 61.8627 29.1078C61.8627 26.801 62.9801 25.3231 64.566 25.3231ZM64.566 26.2243C63.5207 26.2243 62.8119 27.3537 62.8119 29.1078C62.8119 30.874 63.5207 32.0275 64.566 32.0275C65.6113 32.0275 66.3202 30.874 66.3202 29.1078C66.3202 27.3537 65.6113 26.2243 64.566 26.2243ZM69.6243 24.4821H70.6096V35.3676H69.6243V24.4821ZM66.945 28.6272H70.0569V29.4443H66.945V28.6272Z" fill="#7B6F72"/>
<path d="M80.6531 24.5061H81.6503V30.5737H80.6531V24.5061ZM78.5505 25.8999H80.8814V26.7169H78.5505V25.8999ZM73.1678 29.4202H73.9488C76.0634 29.4202 77.1327 29.3962 78.4544 29.1679L78.5505 29.9849C77.1928 30.2012 76.0874 30.2372 73.9488 30.2372H73.1678V29.4202ZM73.1438 24.9747H77.8296V27.9304H74.153V30.1051H73.1678V27.1614H76.8444V25.7917H73.1438V24.9747ZM78.5505 28.0145H80.8814V28.8195H78.5505V28.0145ZM74.6216 31.0182H75.6068V32.2678H80.6651V31.0182H81.6503V35.2114H74.6216V31.0182ZM75.6068 33.0608V34.3944H80.6651V33.0608H75.6068Z" fill="#7B6F72"/>
<path d="M91.1172 24.4821H92.1264V35.3676H91.1172V24.4821ZM91.8861 28.7714H93.9046V29.6125H91.8861V28.7714ZM84.2326 31.8232H85.0857C87.0922 31.8232 88.4979 31.7511 90.1199 31.4508L90.2281 32.2918C88.558 32.6042 87.1282 32.6643 85.0857 32.6643H84.2326V31.8232ZM84.2326 25.5394H89.2789V26.3564H85.2178V32.1957H84.2326V25.5394Z" fill="#7B6F72"/>
<path d="M100.031 26.4045H103.071V27.2215H100.031V26.4045ZM100.031 28.7234H103.095V29.5524H100.031V28.7234ZM95.3215 25.4313H100.284V30.5256H95.3215V25.4313ZM99.2984 26.2363H96.2947V29.7206H99.2984V26.2363ZM102.759 24.5061H103.756V32.436H102.759V24.5061ZM96.7753 34.2983H104.02V35.1153H96.7753V34.2983ZM96.7753 31.7151H97.7725V34.6708H96.7753V31.7151Z" fill="#7B6F72"/>
<path d="M108.345 25.9359C109.138 25.9359 109.779 26.1602 110.267 26.6087C110.756 27.0573 111 27.658 111 28.411C111 29.252 110.74 29.8768 110.219 30.2853C109.698 30.6858 108.994 30.8861 108.104 30.8861L108.068 32.0275H107.119L107.071 30.1291H107.42C108.213 30.1291 108.833 30.009 109.282 29.7687C109.73 29.5284 109.955 29.0758 109.955 28.411C109.955 27.9304 109.811 27.5499 109.522 27.2696C109.234 26.9892 108.845 26.849 108.357 26.849C107.86 26.849 107.468 26.9852 107.179 27.2575C106.899 27.5219 106.759 27.8863 106.759 28.3509H105.725C105.725 27.8703 105.834 27.4498 106.05 27.0893C106.266 26.7209 106.571 26.4365 106.963 26.2363C107.364 26.036 107.824 25.9359 108.345 25.9359ZM107.588 34.4905C107.38 34.4905 107.203 34.4184 107.059 34.2743C106.915 34.1301 106.843 33.9539 106.843 33.7456C106.843 33.5374 106.915 33.3611 107.059 33.217C107.203 33.0728 107.38 33.0007 107.588 33.0007C107.788 33.0007 107.956 33.0728 108.092 33.217C108.237 33.3611 108.309 33.5374 108.309 33.7456C108.309 33.9539 108.237 34.1301 108.092 34.2743C107.956 34.4184 107.788 34.4905 107.588 34.4905Z" fill="#7B6F72"/>
</svg>
