<svg width="144" height="37" viewBox="0 0 144 37" fill="none" xmlns="http://www.w3.org/2000/svg">
<path d="M1.30419 1.06415H9.45337V2.03029H1.30419V1.06415ZM0.100014 9.73141H11.5397V10.6975H0.100014V9.73141ZM4.53866 5.20875H5.70083V10.2075H4.53866V5.20875ZM9.01931 1.06415H10.1675V2.32434C10.1675 3.89256 10.1675 5.62882 9.70541 8.19119L8.54324 8.03716C9.01931 5.61481 9.01931 3.83656 9.01931 2.32434V1.06415Z" fill="#1D1617"/>
<path d="M12.9668 6.14689H24.4484V7.09903H12.9668V6.14689ZM18.1055 4.22861H19.2537V6.58095H18.1055V4.22861ZM18.0915 0H19.0997V0.560081C19.0997 2.84241 16.6773 4.46665 14.1009 4.88671L13.6529 3.96257C15.9212 3.65453 18.0915 2.25433 18.0915 0.560081V0ZM18.2736 0H19.2677V0.560081C19.2677 2.25433 21.452 3.65453 23.7063 3.96257L23.2723 4.88671C20.7099 4.45264 18.2736 2.84241 18.2736 0.560081V0ZM14.241 8.33121H22.9922V12.4618H21.8301V9.26934H14.241V8.33121Z" fill="#1D1617"/>
<path d="M27.3038 5.71283H35.999V6.66496H27.3038V5.71283ZM25.8616 9.89943H37.3292V10.8796H25.8616V9.89943ZM30.9863 6.11889H32.1485V10.2915H30.9863V6.11889ZM27.3038 0.812118H35.873V1.76426H28.4659V6.13289H27.3038V0.812118Z" fill="#1D1617"/>
<path d="M38.7423 9.94144H50.21V10.9076H38.7423V9.94144ZM43.8671 7.22505H45.0292V10.3475H43.8671V7.22505ZM40.1285 0.742107H48.7958V4.57866H41.3187V7.11303H40.1705V3.64053H47.6476V1.68024H40.1285V0.742107ZM40.1705 6.62296H49.0898V7.5751H40.1705V6.62296Z" fill="#1D1617"/>
<path d="M1.03215 26.3229H8.01716V27.151H1.03215V26.3229ZM0 33.7519H9.80542V34.5801H0V33.7519ZM3.80455 29.8754H4.8007V34.16H3.80455V29.8754ZM7.64511 26.3229H8.62925V27.403C8.62925 28.7472 8.62925 30.2354 8.23319 32.4317L7.23705 32.2997C7.64511 30.2234 7.64511 28.6992 7.64511 27.403V26.3229Z" fill="#7B6F72"/>
<path d="M11.0287 30.6795H20.8701V31.4956H11.0287V30.6795ZM15.4333 29.0352H16.4174V31.0515H15.4333V29.0352ZM15.4213 25.4107H16.2854V25.8908C16.2854 27.8471 14.2091 29.2393 12.0008 29.5993L11.6167 28.8072C13.561 28.5432 15.4213 27.343 15.4213 25.8908V25.4107ZM15.5773 25.4107H16.4294V25.8908C16.4294 27.343 18.3017 28.5432 20.234 28.8072L19.8619 29.5993C17.6656 29.2273 15.5773 27.8471 15.5773 25.8908V25.4107ZM12.1208 32.5518H19.6219V36.0923H18.6258V33.3559H12.1208V32.5518Z" fill="#7B6F72"/>
<path d="M23.3175 30.3074H30.7706V31.1236H23.3175V30.3074ZM22.0813 33.896H31.9107V34.7361H22.0813V33.896ZM26.474 30.6555H27.4701V34.232H26.474V30.6555ZM23.3175 26.1068H30.6626V26.9229H24.3136V30.6675H23.3175V26.1068Z" fill="#7B6F72"/>
<path d="M33.122 33.932H42.9514V34.7601H33.122V33.932ZM37.5146 31.6036H38.5108V34.28H37.5146V31.6036ZM34.3102 26.0468H41.7392V29.3353H35.3303V31.5076H34.3462V28.5312H40.7551V26.8509H34.3102V26.0468ZM34.3462 31.0875H41.9913V31.9037H34.3462V31.0875Z" fill="#7B6F72"/>
<path d="M51.4957 25.2307H52.5038V36.0923H51.4957V25.2307ZM52.2278 29.6353H54.2321V30.4635H52.2278V29.6353ZM48.7233 26.4069H49.6954C49.6954 29.4913 48.2792 32.2757 44.7747 34.04L44.2227 33.2719C47.2231 31.7476 48.7233 29.4313 48.7233 26.5629V26.4069ZM44.7267 26.4069H49.2394V27.223H44.7267V26.4069Z" fill="#7B6F72"/>
<path d="M60.0472 32.2877H67.2963V36.0923H66.2881V33.0918H60.0472V32.2877ZM66.2881 25.2427H67.2963V31.6876H66.2881V25.2427ZM61.4754 25.8788C63.1077 25.8788 64.2958 26.9349 64.2958 28.4592C64.2958 29.9714 63.1077 31.0155 61.4754 31.0155C59.8312 31.0155 58.643 29.9714 58.643 28.4592C58.643 26.9349 59.8312 25.8788 61.4754 25.8788ZM61.4754 26.7309C60.3953 26.7309 59.6152 27.427 59.6152 28.4592C59.6152 29.4793 60.3953 30.1874 61.4754 30.1874C62.5556 30.1874 63.3357 29.4793 63.3357 28.4592C63.3357 27.427 62.5556 26.7309 61.4754 26.7309Z" fill="#7B6F72"/>
<path d="M73.8363 25.3867H74.6884V25.8668C74.6884 27.7871 72.5881 29.1673 70.3678 29.5153L69.9957 28.7352C71.952 28.4712 73.8363 27.271 73.8363 25.8668V25.3867ZM73.9923 25.3867H74.8444V25.8668C74.8444 27.235 76.7527 28.4712 78.673 28.7352L78.3009 29.5153C76.0926 29.1673 73.9923 27.7511 73.9923 25.8668V25.3867ZM73.8363 31.0035H74.8204V32.8758H73.8363V31.0035ZM69.4316 30.3794H79.2371V31.1836H69.4316V30.3794ZM70.5238 32.5518H78.0249V36.0923H77.0287V33.3559H70.5238V32.5518Z" fill="#7B6F72"/>
<path d="M87.8294 25.2427H88.8255V36.0923H87.8294V25.2427ZM88.5855 29.6953H90.6018V30.5355H88.5855V29.6953ZM80.4243 26.971H86.8212V27.7871H80.4243V26.971ZM83.6648 28.6872C85.201 28.6872 86.3051 29.7193 86.3051 31.1836C86.3051 32.6478 85.201 33.6799 83.6648 33.6799C82.1405 33.6799 81.0244 32.6478 81.0244 31.1836C81.0244 29.7193 82.1405 28.6872 83.6648 28.6872ZM83.6648 29.5153C82.6806 29.5153 81.9725 30.1994 81.9725 31.1836C81.9725 32.1557 82.6806 32.8518 83.6648 32.8518C84.6489 32.8518 85.357 32.1557 85.357 31.1836C85.357 30.1994 84.6489 29.5153 83.6648 29.5153ZM83.1487 25.3747H84.1448V27.343H83.1487V25.3747Z" fill="#7B6F72"/>
<path d="M94.3934 26.7909H95.1975V28.5552C95.1975 30.8475 93.8173 33.1518 92.0891 34.004L91.513 33.2119C93.0852 32.4677 94.3934 30.4275 94.3934 28.5552V26.7909ZM94.5854 26.7909H95.3895V28.5552C95.3895 30.3914 96.6977 32.2637 98.2939 32.9478L97.7299 33.7399C95.9776 32.9238 94.5854 30.8115 94.5854 28.5552V26.7909ZM91.873 26.3469H97.9339V27.187H91.873V26.3469ZM99.3981 25.2427H100.394V36.0923H99.3981V25.2427Z" fill="#7B6F72"/>
<path d="M108.754 25.8548C110.374 25.8548 111.562 26.8869 111.562 28.3632C111.562 29.8394 110.374 30.8715 108.754 30.8715C107.146 30.8715 105.957 29.8394 105.957 28.3632C105.957 26.8869 107.146 25.8548 108.754 25.8548ZM108.754 26.6709C107.722 26.6709 106.929 27.379 106.929 28.3632C106.929 29.3473 107.722 30.0554 108.754 30.0554C109.81 30.0554 110.602 29.3473 110.602 28.3632C110.602 27.379 109.81 26.6709 108.754 26.6709ZM113.182 25.2427H114.179V30.6435H113.182V25.2427ZM113.746 27.6791H115.787V28.4952H113.746V27.6791ZM106.893 34.9881H107.41C108.058 34.9881 109.102 34.9281 110.026 34.6161L110.194 35.4202C109.15 35.7562 108.154 35.8042 107.41 35.8042H106.893V34.9881ZM106.893 31.8197H107.866V35.2762H106.893V31.8197ZM109.798 31.8917H115.247V32.6358H109.798V31.8917ZM112.534 33.0198C113.71 33.0198 114.539 33.6079 114.539 34.544C114.539 35.4922 113.71 36.0803 112.534 36.0803C111.346 36.0803 110.518 35.4922 110.518 34.544C110.518 33.6079 111.346 33.0198 112.534 33.0198ZM112.534 33.7279C111.862 33.7279 111.406 34.052 111.406 34.544C111.406 35.0481 111.862 35.3722 112.534 35.3722C113.182 35.3722 113.65 35.0481 113.65 34.544C113.65 34.052 113.182 33.7279 112.534 33.7279ZM112.042 30.9195H113.014V32.4677H112.042V30.9195Z" fill="#7B6F72"/>
<path d="M124.139 25.2307H125.147V36.1043H124.139V25.2307ZM124.907 29.5153H126.923V30.3554H124.907V29.5153ZM117.262 32.5638H118.114C120.118 32.5638 121.523 32.4917 123.143 32.1917L123.251 33.0318C121.583 33.3439 120.154 33.4039 118.114 33.4039H117.262V32.5638ZM117.262 26.2869H122.303V27.103H118.246V32.9358H117.262V26.2869Z" fill="#7B6F72"/>
<path d="M133.043 27.151H136.08V27.9671H133.043V27.151ZM133.043 29.4673H136.104V30.2954H133.043V29.4673ZM128.339 26.1788H133.295V31.2676H128.339V26.1788ZM132.311 26.983H129.311V30.4635H132.311V26.983ZM135.768 25.2547H136.764V33.1758H135.768V25.2547ZM129.791 35.0361H137.028V35.8522H129.791V35.0361ZM129.791 32.4557H130.787V35.4082H129.791V32.4557Z" fill="#7B6F72"/>
<path d="M141.348 26.6829C142.14 26.6829 142.78 26.9069 143.268 27.355C143.756 27.8031 144 28.4032 144 29.1553C144 29.9954 143.74 30.6195 143.22 31.0275C142.7 31.4276 141.996 31.6276 141.108 31.6276L141.072 32.7678H140.123L140.075 30.8715H140.424C141.216 30.8715 141.836 30.7515 142.284 30.5115C142.732 30.2714 142.956 29.8194 142.956 29.1553C142.956 28.6752 142.812 28.2951 142.524 28.0151C142.236 27.7351 141.848 27.595 141.36 27.595C140.864 27.595 140.472 27.7311 140.183 28.0031C139.903 28.2671 139.763 28.6312 139.763 29.0953H138.731C138.731 28.6152 138.839 28.1951 139.055 27.8351C139.271 27.467 139.575 27.183 139.967 26.983C140.368 26.7829 140.828 26.6829 141.348 26.6829ZM140.592 35.2281C140.384 35.2281 140.207 35.1561 140.063 35.0121C139.919 34.8681 139.847 34.6921 139.847 34.484C139.847 34.276 139.919 34.1 140.063 33.956C140.207 33.8119 140.384 33.7399 140.592 33.7399C140.792 33.7399 140.96 33.8119 141.096 33.956C141.24 34.1 141.312 34.276 141.312 34.484C141.312 34.6921 141.24 34.8681 141.096 35.0121C140.96 35.1561 140.792 35.2281 140.592 35.2281Z" fill="#7B6F72"/>
</svg>
