<svg width="122" height="37" viewBox="0 0 122 37" fill="none" xmlns="http://www.w3.org/2000/svg">
<path d="M3.37154 1.11311H4.32967V3.3957C4.32967 6.21371 2.80794 8.96126 0.793068 10.0321L0.0744759 9.10216C1.92027 8.17222 3.37154 5.72055 3.37154 3.3957V1.11311ZM3.58289 1.11311H4.52693V3.3957C4.52693 5.63601 5.95002 7.96087 7.75355 8.86263L7.03495 9.79257C5.06235 8.73582 3.58289 6.12917 3.58289 3.3957V1.11311ZM8.86666 0.0140899H10.0502V12.7515H8.86666V0.0140899ZM9.76842 5.17104H12.1355V6.15735H9.76842V5.17104Z" fill="#1D1617"/>
<path d="M14.4311 1.28219H22.6315V2.25441H14.4311V1.28219ZM13.2194 10.0039H24.7309V10.9761H13.2194V10.0039ZM17.6859 5.45284H18.8554V10.483H17.6859V5.45284ZM22.1947 1.28219H23.3501V2.5503C23.3501 4.12838 23.3501 5.87554 22.8851 8.45402L21.7157 8.29903C22.1947 5.86145 22.1947 4.07202 22.1947 2.5503V1.28219Z" fill="#1D1617"/>
<path d="M39.5211 0.0140899H40.6483V12.7515H39.5211V0.0140899ZM37.3653 5.11468H39.817V6.0869H37.3653V5.11468ZM36.6326 0.29589H37.7316V12.1033H36.6326V0.29589ZM30.2921 8.63719H31.1234C32.9833 8.63719 34.2514 8.56674 35.7309 8.25676L35.8436 9.22897C34.3218 9.55304 33.0397 9.6094 31.1234 9.6094H30.2921V8.63719ZM30.2921 1.56399H35.0263V2.52212H31.4475V9.07398H30.2921V1.56399Z" fill="#1D1617"/>
<path d="M52.1165 0H53.2718V12.7656H52.1165V0ZM49.3689 5.11468H52.4546V6.0869H49.3689V5.11468ZM46.0437 3.04345H46.9736V4.12838C46.9736 6.81958 45.4941 9.29942 43.4793 10.2998L42.817 9.39805C44.691 8.49629 46.0437 6.32643 46.0437 4.12838V3.04345ZM46.2691 3.04345H47.1849V4.12838C47.1849 6.22779 48.5799 8.29903 50.4538 9.15852L49.8057 10.0603C47.7626 9.11625 46.2691 6.73504 46.2691 4.12838V3.04345ZM43.1693 2.22623H50.017V3.17026H43.1693V2.22623ZM46.0296 0.23953H47.199V2.74756H46.0296V0.23953Z" fill="#1D1617"/>
<path d="M2.82606 26.8695H3.64731V28.826C3.64731 31.2414 2.34297 33.5965 0.615936 34.5143L0 33.7173C1.58211 32.9202 2.82606 30.8187 2.82606 28.826V26.8695ZM3.00722 26.8695H3.81639V28.826C3.81639 30.7463 5.03618 32.739 6.58206 33.5119L5.96612 34.309C4.27532 33.4032 3.00722 31.169 3.00722 28.826V26.8695ZM7.53616 25.9275H8.55064V36.8452H7.53616V25.9275ZM8.3091 30.3477H10.3381V31.1931H8.3091V30.3477Z" fill="#7B6F72"/>
<path d="M12.3057 27.0144H19.3346V27.8477H12.3057V27.0144ZM11.2671 34.4902H21.1341V35.3235H11.2671V34.4902ZM15.0955 30.5893H16.0979V34.9008H15.0955V30.5893ZM18.9602 27.0144H19.9505V28.1014C19.9505 29.454 19.9505 30.9516 19.552 33.1617L18.5496 33.0289C18.9602 30.9395 18.9602 29.4057 18.9602 28.1014V27.0144Z" fill="#7B6F72"/>
<path d="M29.7563 25.9154H30.7707V36.8452H29.7563V25.9154ZM30.493 30.3477H32.5099V31.181H30.493V30.3477ZM26.9664 27.099H27.9447C27.9447 30.2028 26.5196 33.0047 22.993 34.78L22.4375 34.0071C25.4568 32.4733 26.9664 30.1424 26.9664 27.256V27.099ZM22.9447 27.099H27.4858V27.9202H22.9447V27.099Z" fill="#7B6F72"/>
<path d="M44.1707 25.9275H45.1731V32.0385H44.1707V25.9275ZM44.9074 28.512H46.7914V29.3453H44.9074V28.512ZM37.2263 26.6159H38.2287V31.0482H37.2263V26.6159ZM37.2263 30.5047H38.0838C39.6538 30.5047 41.2842 30.396 43.0716 30.0337L43.1924 30.855C41.3446 31.2294 39.7142 31.3501 38.0838 31.3501H37.2263V30.5047ZM39.3277 32.4854H40.0886V33.2704C40.0886 34.7076 39.2069 36.1689 37.649 36.7607L37.1417 36.024C38.5065 35.5168 39.3277 34.3332 39.3277 33.2704V32.4854ZM39.5572 32.4854H40.2939V33.2704C40.2939 34.3815 40.934 35.5651 42.2504 36.1085L41.8156 36.8573C40.2456 36.2414 39.5572 34.7197 39.5572 33.2704V32.4854ZM43.3494 32.4854H44.0982V33.2704C44.0982 34.5506 43.3856 36.1931 41.8156 36.8573L41.3929 36.1085C42.7093 35.5047 43.3494 34.2124 43.3494 33.2704V32.4854ZM43.5547 32.4854H44.3277V33.2704C44.3277 34.4057 45.1248 35.553 46.5015 36.024L46.0064 36.7607C44.4243 36.181 43.5547 34.78 43.5547 33.2704V32.4854Z" fill="#7B6F72"/>
<path d="M52.7445 26.1086C55.1479 26.1086 56.585 26.785 56.585 28.0048C56.585 29.2245 55.1479 29.9009 52.7445 29.9009C50.3291 29.9009 48.904 29.2245 48.904 28.0048C48.904 26.785 50.3291 26.1086 52.7445 26.1086ZM52.7445 26.8695C50.9571 26.8695 49.9305 27.2801 49.9305 28.0048C49.9305 28.7294 50.9571 29.14 52.7445 29.14C54.5198 29.14 55.5464 28.7294 55.5464 28.0048C55.5464 27.2801 54.5198 26.8695 52.7445 26.8695ZM47.8049 30.6255H57.672V31.4347H47.8049V30.6255ZM49.0006 32.3646H56.416V34.8284H50.0151V36.1568H49.0247V34.1037H55.4256V33.1376H49.0006V32.3646ZM49.0247 35.9395H56.742V36.7245H49.0247V35.9395Z" fill="#7B6F72"/>
<path d="M68.3908 26.1569H69.3207V36.3018H68.3908V26.1569ZM68.9342 30.3719H70.9511V31.1931H68.9342V30.3719ZM62.4609 33.1738H62.8957C63.3183 33.1738 64.0309 33.1617 64.8763 32.9564L64.9608 33.7897C64.0551 34.0071 63.3546 34.0071 62.8957 34.0071H62.4609V33.1738ZM62.4609 27.2922H64.7918V28.1134H63.3908V33.6448H62.4609V27.2922ZM65.2628 33.1738H65.7217C66.3014 33.1738 67.0623 33.1496 67.8956 32.9202L67.9922 33.7535C67.0985 33.995 66.3497 34.0071 65.7217 34.0071H65.2628V33.1738ZM65.2628 27.2922H67.6661V28.1134H66.1806V33.6086H65.2628V27.2922ZM70.6009 25.9275H71.555V36.8452H70.6009V25.9275Z" fill="#7B6F72"/>
<path d="M84.7737 25.9275H85.7399V36.8452H84.7737V25.9275ZM82.9259 30.2994H85.0274V31.1327H82.9259V30.2994ZM82.2979 26.169H83.2399V36.2897H82.2979V26.169ZM76.8632 33.3187H77.5757C79.1699 33.3187 80.2569 33.2583 81.525 32.9926L81.6216 33.826C80.3173 34.1037 79.2182 34.152 77.5757 34.152H76.8632V33.3187ZM76.8632 27.256H80.9211V28.0772H77.8535V33.6931H76.8632V27.256Z" fill="#7B6F72"/>
<path d="M95.5698 25.9154H96.5601V36.8573H95.5698V25.9154ZM93.2147 30.2994H95.8596V31.1327H93.2147V30.2994ZM90.3645 28.5241H91.1616V29.454C91.1616 31.7608 89.8935 33.8863 88.1665 34.7438L87.5988 33.9709C89.2051 33.1979 90.3645 31.3381 90.3645 29.454V28.5241ZM90.5578 28.5241H91.3428V29.454C91.3428 31.2535 92.5384 33.0289 94.1447 33.7656L93.5891 34.5385C91.8379 33.7293 90.5578 31.6883 90.5578 29.454V28.5241ZM87.9008 27.8236H93.7703V28.6328H87.9008V27.8236ZM90.3524 26.1207H91.3548V28.2704H90.3524V26.1207Z" fill="#7B6F72"/>
<path d="M106.904 32.7752C109.127 32.7752 110.491 33.524 110.491 34.8042C110.491 36.0844 109.127 36.8332 106.904 36.8332C104.682 36.8332 103.318 36.0844 103.318 34.8042C103.318 33.524 104.682 32.7752 106.904 32.7752ZM106.904 33.5844C105.286 33.5844 104.296 34.0313 104.296 34.8042C104.296 35.5892 105.286 36.0361 106.904 36.0361C108.523 36.0361 109.513 35.5892 109.513 34.8042C109.513 34.0313 108.523 33.5844 106.904 33.5844ZM109.38 25.9275H110.383V32.4854H109.38V25.9275ZM110.105 28.669H112.001V29.5144H110.105V28.669ZM102.363 26.6159H103.354V28.2463H106.433V26.6159H107.412V31.6521H102.363V26.6159ZM103.354 29.0434V30.8429H106.433V29.0434H103.354Z" fill="#7B6F72"/>
<path d="M113.558 26.483H114.548V28.1618H117.507V26.483H118.486V31.483H113.558V26.483ZM114.548 28.9468V30.6617H117.507V28.9468H114.548ZM118.208 28.6086H121.3V29.4299H118.208V28.6086ZM120.998 25.9275H122V31.8936H120.998V25.9275ZM115.007 32.425H115.998V33.7414H121.01V32.425H122V36.7003H115.007V32.425ZM115.998 34.5385V35.8791H121.01V34.5385H115.998Z" fill="#7B6F72"/>
</svg>
