<svg width="144" height="37" viewBox="0 0 144 37" fill="none" xmlns="http://www.w3.org/2000/svg">
<path d="M1.44898 5.93659H10.185V6.89319H1.44898V5.93659ZM0 10.1428H11.5215V11.1276H0V10.1428ZM5.14879 6.34455H6.31642V10.5367H5.14879V6.34455ZM1.44898 1.01288H10.0584V1.96948H2.6166V6.35862H1.44898V1.01288Z" fill="#1D1617"/>
<path d="M12.9412 10.185H24.4627V11.1557H12.9412V10.185ZM18.09 7.4559H19.2576V10.593H18.09V7.4559ZM14.3339 0.942538H23.0419V4.7971H15.5297V7.34336H14.3761V3.85456H21.8883V1.88508H14.3339V0.942538ZM14.3761 6.85099H23.3373V7.8076H14.3761V6.85099Z" fill="#1D1617"/>
<path d="M39.2154 0H40.3408V12.7172H39.2154V0ZM37.2037 5.03625H39.6374V5.99286H37.2037V5.03625ZM36.4018 0.267287H37.5132V12.0842H36.4018V0.267287ZM29.9869 1.46304H34.8403V9.31285H29.9869V1.46304ZM33.743 2.39152H31.0842V8.38438H33.743V2.39152Z" fill="#1D1617"/>
<path d="M51.7908 0H52.9585V12.7454H51.7908V0ZM47.88 4.19219H52.1707V5.14879H47.88V4.19219ZM43.1673 1.42084H44.3209V9.29878H43.1673V1.42084ZM43.1673 8.6798H44.152C46.1215 8.6798 47.88 8.56726 49.8354 8.15929L49.9761 9.14403C47.9503 9.53793 46.1637 9.66454 44.152 9.66454H43.1673V8.6798Z" fill="#1D1617"/>
<path d="M8.19546 25.7054H9.16011V36.6059H8.19546V25.7054ZM6.47116 30.0222H8.55721V30.8421H6.47116V30.0222ZM5.78385 25.9345H6.73644V36.0633H5.78385V25.9345ZM0.285374 26.9594H4.44541V33.6878H0.285374V26.9594ZM3.50488 27.7553H1.2259V32.892H3.50488V27.7553Z" fill="#7B6F72"/>
<path d="M18.9744 25.7054H19.9753V36.63H18.9744V25.7054ZM15.6223 29.2987H19.3V30.1186H15.6223V29.2987ZM11.5828 26.9233H12.5716V33.6758H11.5828V26.9233ZM11.5828 33.1452H12.4269C14.115 33.1452 15.6223 33.0488 17.2984 32.6991L17.4189 33.5431C15.6826 33.8808 14.1512 33.9893 12.4269 33.9893H11.5828V33.1452Z" fill="#7B6F72"/>
<path d="M28.0122 32.4097H28.784V33.0005C28.784 34.4234 27.8917 35.8583 26.3241 36.4612L25.8177 35.7136C27.1923 35.2192 28.0122 34.0496 28.0122 33.0005V32.4097ZM28.2293 32.4097H28.9769V33.0005C28.9769 34.0978 29.628 35.2674 30.9303 35.798L30.5083 36.5577C28.9407 35.9427 28.2293 34.4475 28.2293 33.0005V32.4097ZM32.0396 32.4097H32.7872V33.0005C32.7872 34.2787 32.0637 35.8945 30.5083 36.5577L30.0862 35.798C31.3764 35.2071 32.0396 33.9411 32.0396 33.0005V32.4097ZM32.2446 32.4097H33.0163V33.0005C33.0163 34.1219 33.8242 35.2433 35.2109 35.7136L34.7045 36.4612C33.1128 35.8824 32.2446 34.5078 32.2446 33.0005V32.4097ZM33.2213 25.7175H34.2342V31.9394H33.2213V25.7175ZM28.386 26.3445C30.038 26.3445 31.2197 27.3815 31.2197 28.8887C31.2197 30.396 30.038 31.4209 28.386 31.4209C26.7341 31.4209 25.5403 30.396 25.5403 28.8887C25.5403 27.3815 26.7341 26.3445 28.386 26.3445ZM28.386 27.1765C27.3008 27.1765 26.517 27.8758 26.517 28.8887C26.517 29.9016 27.3008 30.5889 28.386 30.5889C29.4713 30.5889 30.255 29.9016 30.255 28.8887C30.255 27.8758 29.4713 27.1765 28.386 27.1765Z" fill="#7B6F72"/>
<path d="M37.718 28.9731H45.1217V29.7931H37.718V28.9731ZM36.3796 31.2521H46.2672V32.0721H36.3796V31.2521ZM37.718 26.1033H38.7068V29.3831H37.718V26.1033ZM37.6457 35.5207H45.182V36.3406H37.6457V35.5207ZM37.6457 33.1573H38.6344V35.7377H37.6457V33.1573Z" fill="#7B6F72"/>
<path d="M50.6868 31.228H60.5744V32.0479H50.6868V31.228ZM55.1965 31.7465H56.2094V34.2546H55.1965V31.7465ZM51.9408 35.5327H59.4771V36.3647H51.9408V35.5327ZM51.9408 33.1814H52.9416V35.7618H51.9408V33.1814ZM55.6185 25.9707C57.9216 25.9707 59.4409 26.8147 59.4409 28.1652C59.4409 29.5157 57.9216 30.3598 55.6185 30.3598C53.3034 30.3598 51.7961 29.5157 51.7961 28.1652C51.7961 26.8147 53.3034 25.9707 55.6185 25.9707ZM55.6185 26.7906C53.9545 26.7906 52.8572 27.3212 52.8572 28.1652C52.8572 29.0214 53.9545 29.5399 55.6185 29.5399C57.2825 29.5399 58.3798 29.0214 58.3798 28.1652C58.3798 27.3212 57.2825 26.7906 55.6185 26.7906Z" fill="#7B6F72"/>
<path d="M67.5671 28.7079H70.3164V29.5278H67.5671V28.7079ZM69.7496 25.7175H70.7504V33.6999H69.7496V25.7175ZM63.7929 35.5448H71.0519V36.3647H63.7929V35.5448ZM63.7929 33.0005H64.7938V35.9668H63.7929V33.0005ZM64.5647 27.068H65.3846V27.9482C65.3846 29.9257 64.1547 31.638 62.3339 32.3132L61.8154 31.5174C63.4433 30.9386 64.5647 29.4916 64.5647 27.9482V27.068ZM64.7576 27.068H65.5655V27.9361C65.5655 29.3469 66.6266 30.7215 68.2062 31.2762L67.6998 32.06C65.9272 31.4209 64.7576 29.781 64.7576 27.9361V27.068ZM62.1289 26.5977H67.953V27.4056H62.1289V26.5977Z" fill="#7B6F72"/>
<path d="M75.5727 27.2609H76.3686V29.0334C76.3686 31.3003 74.9819 33.6396 73.2817 34.5078L72.7029 33.7119C74.2584 32.9523 75.5727 30.8783 75.5727 29.0334V27.2609ZM75.7536 27.2609H76.5494V29.0334C76.5494 30.7577 77.7794 32.6991 79.359 33.4467L78.7922 34.2425C77.0679 33.3864 75.7536 31.1918 75.7536 29.0334V27.2609ZM73.0888 26.8147H78.961V27.6588H73.0888V26.8147ZM80.2513 25.7054H81.2641V36.6059H80.2513V25.7054ZM81.023 30.1066H83.0487V30.9507H81.023V30.1066Z" fill="#7B6F72"/>
<path d="M91.3437 25.6933H92.3566V36.6059H91.3437V25.6933ZM92.0793 30.1186H94.093V30.9507H92.0793V30.1186ZM88.5583 26.875H89.535C89.535 29.9739 88.1122 32.7714 84.5912 34.544L84.0365 33.7722C87.0511 32.2409 88.5583 29.9137 88.5583 27.0318V26.875ZM84.543 26.875H89.0768V27.695H84.543V26.875Z" fill="#7B6F72"/>
<path d="M99.1396 30.396H104.722V31.2159H99.1396V30.396ZM101.37 31.0471H102.383V33.5552H101.37V31.0471ZM99.1396 26.7303H104.662V27.5503H100.14V30.6854H99.1396V26.7303ZM106.157 25.6933H107.158V36.6179H106.157V25.6933ZM98.4764 34.2546L98.3317 33.4226C100.466 33.4105 103.143 33.3864 105.446 33.109L105.53 33.8566C103.143 34.2184 100.538 34.2666 98.4764 34.2546Z" fill="#7B6F72"/>
<path d="M117.31 25.7054H118.311V36.6059H117.31V25.7054ZM114.115 26.875H115.103C115.103 30.0342 113.681 32.7955 110.039 34.5801L109.509 33.7722C112.656 32.2529 114.115 29.9378 114.115 27.0438V26.875ZM110.003 26.875H114.549V27.695H110.003V26.875Z" fill="#7B6F72"/>
<path d="M127.24 26.2118C128.868 26.2118 130.026 27.1162 130.026 28.4546C130.026 29.781 128.868 30.7095 127.24 30.7095C125.624 30.7095 124.467 29.781 124.467 28.4546C124.467 27.1162 125.624 26.2118 127.24 26.2118ZM127.24 27.0438C126.179 27.0438 125.419 27.6226 125.419 28.4546C125.419 29.2987 126.179 29.8654 127.24 29.8654C128.301 29.8654 129.061 29.2987 129.061 28.4546C129.061 27.6226 128.301 27.0438 127.24 27.0438ZM126.794 31.9153H127.795V36.2683H126.794V31.9153ZM131.617 25.7054H132.606V36.6179H131.617V25.7054ZM123.792 32.4579L123.659 31.6138C125.685 31.6138 128.446 31.5897 130.846 31.228L130.918 31.9756C128.458 32.4217 125.781 32.4579 123.792 32.4579Z" fill="#7B6F72"/>
<path d="M134.751 27.5623H140.153V28.3823H134.751V27.5623ZM137.452 29.1058C138.815 29.1058 139.804 30.1307 139.804 31.6018C139.804 33.0608 138.815 34.0857 137.452 34.0857C136.102 34.0857 135.113 33.0608 135.113 31.6018C135.113 30.1307 136.102 29.1058 137.452 29.1058ZM137.452 29.9619C136.62 29.9619 136.018 30.6371 136.018 31.6018C136.018 32.5664 136.62 33.2417 137.452 33.2417C138.297 33.2417 138.911 32.5664 138.911 31.6018C138.911 30.6371 138.297 29.9619 137.452 29.9619ZM143.035 25.7054H144V36.6059H143.035V25.7054ZM141.299 30.2875H143.361V31.1195H141.299V30.2875ZM140.708 25.9466H141.649V36.0753H140.708V25.9466ZM136.97 26.0189H137.959V28.0688H136.97V26.0189Z" fill="#7B6F72"/>
</svg>
