<svg width="105" height="37" viewBox="0 0 105 37" fill="none" xmlns="http://www.w3.org/2000/svg">
<path d="M9.07066 0H10.2556V6.60198H9.07066V0ZM1.93263 7.22268H10.2556V10.298H3.1176V12.2165H1.97495V9.42333H9.08477V8.15372H1.93263V7.22268ZM1.97495 11.6804H10.7212V12.6115H1.97495V11.6804ZM0.35267 0.860514H7.19446V1.79156H0.35267V0.860514ZM0.126961 6.17877L0 5.20541C2.27119 5.20541 5.31826 5.14898 7.80105 4.83863L7.87159 5.69914C5.33237 6.08003 2.36994 6.16467 0.126961 6.17877ZM1.60817 1.28372H2.73672V5.62861H1.60817V1.28372ZM4.79631 1.28372H5.93896V5.62861H4.79631V1.28372Z" fill="#1D1617"/>
<path d="M17.9145 0.451417H18.9443V1.15676C18.9443 3.59723 16.4615 5.34647 13.8094 5.79789L13.3439 4.85274C15.6715 4.50007 17.9145 2.97653 17.9145 1.15676V0.451417ZM18.1261 0.451417H19.1418V1.15676C19.1418 2.93421 21.413 4.50007 23.7124 4.85274L23.2469 5.79789C20.623 5.34647 18.1261 3.56902 18.1261 1.15676V0.451417ZM17.9145 7.8998H19.0713V12.7525H17.9145V7.8998ZM12.7655 7.18036H24.2908V8.15372H12.7655V7.18036Z" fill="#1D1617"/>
<path d="M34.5984 5.03612H37.0107V5.99539H34.5984V5.03612ZM32.0028 3.25867H32.9056V3.92169C32.9056 6.46091 31.8476 9.02834 29.9855 10.1428L29.2943 9.25405C31.0153 8.25247 32.0028 6.00949 32.0028 3.92169V3.25867ZM32.2144 3.25867H33.1172V3.92169C33.1172 5.95306 34.1329 8.05498 35.8539 8.98602L35.1909 9.86065C33.3147 8.81674 32.2144 6.40448 32.2144 3.92169V3.25867ZM29.647 2.34173H35.4731V3.3151H29.647V2.34173ZM32.0028 0.451417H33.1313V3.08939H32.0028V0.451417ZM39.0985 0H40.2271V12.7525H39.0985V0ZM36.5452 0.296242H37.6455V12.1036H36.5452V0.296242Z" fill="#1D1617"/>
<path d="M43.7526 1.29782H51.8499V2.25709H43.7526V1.29782ZM42.3843 10.0017H53.9095V10.9892H42.3843V10.0017ZM51.3421 1.29782H52.4847V2.86368C52.4847 4.73988 52.4848 6.47502 51.9487 9.08477L50.7919 8.97192C51.3421 6.51734 51.3421 4.69756 51.3421 2.86368V1.29782ZM51.6383 4.82452V5.69914L43.5834 6.13645L43.4141 5.16309L51.6383 4.82452Z" fill="#1D1617"/>
<path d="M3.24255 29.2977C4.04865 29.2977 4.70159 29.5435 5.20138 30.0353C5.70116 30.5189 5.95105 31.2202 5.95105 32.1392V36.0448H4.86281V32.2964C4.86281 31.6354 4.69756 31.1316 4.36706 30.7849C4.03656 30.4303 3.58514 30.2529 3.01281 30.2529C2.43241 30.2529 1.9689 30.4343 1.62228 30.797C1.28372 31.1598 1.11444 31.6878 1.11444 32.381V36.0448H0.0141068V29.4186H1.11444V30.3617C1.33208 30.0232 1.62631 29.7612 1.99712 29.5758C2.37599 29.3904 2.79113 29.2977 3.24255 29.2977Z" fill="#7B6F72"/>
<path d="M15.7168 26.0572H16.6841V36.9879H15.7168V26.0572ZM13.9514 30.4464H16.0432V31.2686H13.9514V30.4464ZM11.122 27.4598H12.0893C12.0893 30.2771 11.122 32.8889 8.00236 34.6421L7.40987 33.9287C10.1547 32.3931 11.122 30.1804 11.122 27.6532V27.4598ZM7.83308 27.4598H11.4605V28.2941H7.83308V27.4598ZM13.2864 26.3473H14.2416V36.4559H13.2864V26.3473Z" fill="#7B6F72"/>
<path d="M22.088 26.8431C23.793 26.8431 25.0142 27.8951 25.0142 29.4186C25.0142 30.9542 23.793 32.0062 22.088 32.0062C20.3831 32.0062 19.1498 30.9542 19.1498 29.4186C19.1498 27.8951 20.3831 26.8431 22.088 26.8431ZM22.088 27.7137C20.9514 27.7137 20.1292 28.4029 20.1292 29.4186C20.1292 30.4343 20.9514 31.1356 22.088 31.1356C23.2126 31.1356 24.0348 30.4343 24.0348 29.4186C24.0348 28.4029 23.2126 27.7137 22.088 27.7137ZM26.441 26.0451H27.4446V37H26.441V26.0451ZM18.7387 34.6059L18.5936 33.7716C20.5887 33.7716 23.3456 33.7595 25.7276 33.3846L25.8122 34.1222C23.3577 34.5938 20.6854 34.6059 18.7387 34.6059Z" fill="#7B6F72"/>
<path d="M40.8483 26.0572H41.864V31.716H40.8483V26.0572ZM34.73 32.248H41.864V34.884H35.7457V36.5284H34.7663V34.1343H40.8604V33.0461H34.73V32.248ZM34.7663 36.0689H42.2631V36.867H34.7663V36.0689ZM33.3758 26.7947H39.2402V27.5928H33.3758V26.7947ZM33.1823 31.3532L33.0735 30.5189C35.0202 30.5189 37.632 30.4706 39.7601 30.2045L39.8206 30.9421C37.6441 31.2686 35.1049 31.3412 33.1823 31.3532ZM34.4519 27.1575H35.4193V30.8817H34.4519V27.1575ZM37.1846 27.1575H38.164V30.8817H37.1846V27.1575Z" fill="#7B6F72"/>
<path d="M48.4288 26.4441H49.3115V27.0487C49.3115 29.1405 47.1834 30.6398 44.9102 31.0268L44.5111 30.2166C46.5062 29.9144 48.4288 28.6085 48.4288 27.0487V26.4441ZM48.6102 26.4441H49.4808V27.0487C49.4808 28.5722 51.4275 29.9144 53.3984 30.2166L52.9994 31.0268C50.7504 30.6398 48.6102 29.1163 48.6102 27.0487V26.4441ZM48.4288 32.8284H49.4203V36.9879H48.4288V32.8284ZM44.0154 32.2117H53.8942V33.0461H44.0154V32.2117Z" fill="#7B6F72"/>
<path d="M62.812 30.3738H64.8796V31.1961H62.812V30.3738ZM60.5871 28.8503H61.361V29.4186C61.361 31.5951 60.4541 33.7957 58.858 34.751L58.2655 33.9892C59.7407 33.1307 60.5871 31.2081 60.5871 29.4186V28.8503ZM60.7685 28.8503H61.5423V29.4186C61.5423 31.1598 62.4129 32.9614 63.8881 33.7595L63.3198 34.5091C61.7116 33.6144 60.7685 31.5467 60.7685 29.4186V28.8503ZM58.5678 28.0643H63.5616V28.8987H58.5678V28.0643ZM60.5871 26.4441H61.5544V28.7052H60.5871V26.4441ZM66.6692 26.0572H67.6365V36.9879H66.6692V26.0572ZM64.4806 26.3111H65.4237V36.4317H64.4806V26.3111Z" fill="#7B6F72"/>
<path d="M70.6584 27.1696H77.599V27.9918H70.6584V27.1696ZM69.4855 34.6301H79.3643V35.4765H69.4855V34.6301ZM77.1637 27.1696H78.1431V28.5117C78.1431 30.1199 78.1431 31.6072 77.6836 33.8441L76.6921 33.7474C77.1637 31.6434 77.1637 30.0836 77.1637 28.5117V27.1696ZM77.4176 30.1925V30.9421L70.5133 31.317L70.3682 30.4827L77.4176 30.1925Z" fill="#7B6F72"/>
<path d="M91.305 26.0572H92.3086V33.0944H91.305V26.0572ZM92.0305 29.0921H93.9289V29.9264H92.0305V29.0921ZM88.8746 33.1912C91.0873 33.1912 92.4295 33.8804 92.4295 35.0774C92.4295 36.2745 91.0873 36.9637 88.8746 36.9637C86.6739 36.9637 85.3197 36.2745 85.3197 35.0774C85.3197 33.8804 86.6739 33.1912 88.8746 33.1912ZM88.8746 33.965C87.2785 33.965 86.3112 34.3761 86.3112 35.0774C86.3112 35.7908 87.2785 36.1899 88.8746 36.1899C90.4828 36.1899 91.4501 35.7908 91.4501 35.0774C91.4501 34.3761 90.4828 33.965 88.8746 33.965ZM83.8566 27.2905H90.3135V28.0885H83.8566V27.2905ZM87.085 28.6447C88.6449 28.6447 89.6968 29.3944 89.6968 30.5673C89.6968 31.7523 88.6449 32.5019 87.085 32.5019C85.5131 32.5019 84.4612 31.7523 84.4612 30.5673C84.4612 29.3944 85.5131 28.6447 87.085 28.6447ZM87.085 29.4065C86.0814 29.4065 85.4164 29.866 85.4164 30.5673C85.4164 31.2807 86.0814 31.7402 87.085 31.7402C88.0645 31.7402 88.7416 31.2807 88.7416 30.5673C88.7416 29.866 88.0645 29.4065 87.085 29.4065ZM86.5772 25.9604H87.5808V27.7379H86.5772V25.9604Z" fill="#7B6F72"/>
<path d="M96.2132 26.5045H103.565V30.2287H96.2132V26.5045ZM102.573 27.3147H97.1926V29.4186H102.573V27.3147ZM94.9436 31.5951H104.822V32.4052H94.9436V31.5951ZM99.3933 30.0111H100.385V31.8974H99.3933V30.0111ZM96.0439 33.5297H103.601V36.9879H102.598V34.3519H96.0439V33.5297Z" fill="#7B6F72"/>
</svg>
