<svg width="21" height="32" viewBox="0 0 21 32" fill="none" xmlns="http://www.w3.org/2000/svg">
<path d="M12.4097 29.2601C12.4097 30.4354 11.4181 31.3881 10.1948 31.3881C8.97156 31.3881 7.9799 30.4354 7.9799 29.2601C7.9799 28.0849 8.97156 27.1321 10.1948 27.1321C11.4181 27.1321 12.4097 28.0849 12.4097 29.2601Z" fill="url(#paint0_linear_123_361)"/>
<path fill-rule="evenodd" clip-rule="evenodd" d="M10.5 21C4.704 21 0 16.2855 0 10.5C0 4.704 4.704 0 10.5 0C16.2855 0 21 4.704 21 10.5C21 16.2855 16.2855 21 10.5 21ZM14.7 8.42101C14.385 8.11651 13.8915 8.11651 13.587 8.43151L10.5 11.529L7.41301 8.43151C7.10851 8.11651 6.60451 8.11651 6.30001 8.42101C5.98501 8.73601 5.98501 9.22951 6.30001 9.53401L9.94351 13.1985C10.0905 13.3455 10.29 13.4295 10.5 13.4295C10.71 13.4295 10.9095 13.3455 11.0565 13.1985L14.7 9.53401C14.8575 9.38701 14.931 9.18751 14.931 8.98801C14.931 8.77801 14.8575 8.57851 14.7 8.42101Z" fill="url(#paint1_linear_123_361)"/>
<defs>
<linearGradient id="paint0_linear_123_361" x1="21" y1="31.3881" x2="-7.08099" y2="29.9343" gradientUnits="userSpaceOnUse">
<stop stop-color="#C58BF2"/>
<stop offset="1" stop-color="#EEA4CE"/>
</linearGradient>
<linearGradient id="paint1_linear_123_361" x1="21" y1="31.3881" x2="-7.08099" y2="29.9343" gradientUnits="userSpaceOnUse">
<stop stop-color="#C58BF2"/>
<stop offset="1" stop-color="#EEA4CE"/>
</linearGradient>
</defs>
</svg>
